<svg width="18" height="18" viewBox="0 0 18 18" fill="none" xmlns="http://www.w3.org/2000/svg">
<path d="M17.951 5.29211C17.9088 4.33569 17.7541 3.67816 17.5326 3.1084C17.304 2.50361 16.9524 1.96215 16.4917 1.51203C16.0416 1.05491 15.4965 0.699699 14.8988 0.474707C14.3257 0.25315 13.6716 0.0984853 12.7152 0.0563166C11.7516 0.0105765 11.4457 0 9.00186 0C6.55799 0 6.2521 0.0105765 5.29211 0.0527453C4.33569 0.094914 3.67816 0.249716 3.10854 0.471136C2.50361 0.699699 1.96215 1.05133 1.51203 1.51203C1.05491 1.96215 0.699836 2.50719 0.474707 3.10497C0.25315 3.67816 0.0984853 4.33212 0.0563165 5.28854C0.0105765 6.2521 0 6.558 0 9.00186C0 11.4457 0.0105765 11.7516 0.0527453 12.7116C0.094914 13.668 0.249716 14.3256 0.471273 14.8953C0.699836 15.5001 1.05491 16.0416 1.51203 16.4917C1.96215 16.9488 2.50719 17.304 3.10497 17.529C3.67816 17.7506 4.33212 17.9052 5.28867 17.9474C6.24853 17.9897 6.55456 18.0001 8.99842 18.0001C11.4423 18.0001 11.7482 17.9897 12.7082 17.9474C13.6646 17.9052 14.3221 17.7506 14.8917 17.529C16.1015 17.0613 17.0579 16.1049 17.5256 14.8953C17.747 14.3221 17.9018 13.668 17.944 12.7116C17.9861 11.7516 17.9967 11.4457 17.9967 9.00186C17.9967 6.558 17.9931 6.2521 17.951 5.29211ZM16.33 12.6413C16.2913 13.5204 16.1436 13.9951 16.0205 14.3116C15.7181 15.0957 15.0957 15.7181 14.3115 16.0206C13.9951 16.1436 13.5169 16.2913 12.6413 16.3299C11.6919 16.3722 11.4071 16.3826 9.00543 16.3826C6.60373 16.3826 6.31542 16.3722 5.36944 16.3299C4.49035 16.2913 4.01565 16.1436 3.69917 16.0206C3.30894 15.8763 2.95373 15.6478 2.66542 15.3489C2.36653 15.057 2.13797 14.7054 1.99374 14.3151C1.87067 13.9986 1.72301 13.5204 1.68441 12.6449C1.64211 11.6954 1.63167 11.4106 1.63167 9.00887C1.63167 6.60717 1.64211 6.31886 1.68441 5.37301C1.72301 4.49392 1.87067 4.01922 1.99374 3.70275C2.13797 3.31238 2.36653 2.95731 2.66899 2.66886C2.96074 2.36997 3.31237 2.1414 3.70274 1.99732C4.01922 1.87424 4.4975 1.72658 5.37301 1.68785C6.32243 1.64568 6.60731 1.6351 9.00886 1.6351C11.4141 1.6351 11.6989 1.64568 12.6449 1.68785C13.5239 1.72658 13.9986 1.87424 14.3151 1.99732C14.7054 2.1414 15.0606 2.36997 15.3489 2.66886C15.6478 2.96074 15.8763 3.31238 16.0205 3.70275C16.1436 4.01922 16.2913 4.49736 16.33 5.37301C16.3722 6.32243 16.3828 6.60717 16.3828 9.00887C16.3828 11.4106 16.3722 11.6919 16.33 12.6413Z" fill="white"/>
<path d="M9.00181 4.37793C6.44902 4.37793 4.37781 6.44901 4.37781 9.00193C4.37781 11.5549 6.44902 13.6259 9.00181 13.6259C11.5547 13.6259 13.6258 11.5549 13.6258 9.00193C13.6258 6.44901 11.5547 4.37793 9.00181 4.37793ZM9.00181 12.0014C7.34569 12.0014 6.00233 10.6582 6.00233 9.00193C6.00233 7.34568 7.34569 6.00246 9.00181 6.00246C10.6581 6.00246 12.0013 7.34568 12.0013 9.00193C12.0013 10.6582 10.6581 12.0014 9.00181 12.0014Z" fill="white"/>
<path d="M14.8884 4.19485C14.8884 4.79098 14.405 5.27434 13.8087 5.27434C13.2126 5.27434 12.7292 4.79098 12.7292 4.19485C12.7292 3.59858 13.2126 3.11536 13.8087 3.11536C14.405 3.11536 14.8884 3.59858 14.8884 4.19485Z" fill="white"/>
</svg>
