<svg width="11" height="18" viewBox="0 0 11 18" fill="none" xmlns="http://www.w3.org/2000/svg">
<path d="M6.32297 18.0002H3.43476C2.95233 18.0002 2.5599 17.6085 2.5599 17.1271V10.6253H0.874857C0.392433 10.6253 0 10.2335 0 9.75213V6.9661C0 6.48462 0.392433 6.09295 0.874857 6.09295H2.5599V4.69781C2.5599 3.31448 2.99513 2.13755 3.81838 1.29448C4.64536 0.447561 5.80105 0 7.16054 0L9.36323 0.00357058C9.84483 0.00439458 10.2366 0.396062 10.2366 0.876719V3.46348C10.2366 3.94496 9.84428 4.33663 9.36199 4.33663L7.87894 4.33718C7.42665 4.33718 7.31148 4.42768 7.28685 4.45542C7.24626 4.50142 7.19796 4.63148 7.19796 4.9906V6.09281H9.25053C9.40506 6.09281 9.55477 6.13085 9.68342 6.20254C9.96096 6.35731 10.1335 6.64996 10.1335 6.96624L10.1324 9.75226C10.1324 10.2335 9.73997 10.6251 9.25755 10.6251H7.19796V17.1271C7.19796 17.6085 6.80539 18.0002 6.32297 18.0002ZM3.61721 16.945H6.14051V10.1529C6.14051 9.83137 6.40264 9.56989 6.72462 9.56989H9.07509L9.07606 7.1482H6.72448C6.4025 7.1482 6.14051 6.88672 6.14051 6.56523V4.9906C6.14051 4.57833 6.18248 4.10948 6.49428 3.75709C6.87103 3.33109 7.46477 3.28193 7.87867 3.28193L9.17926 3.28138V1.05854L7.15971 1.05525C4.97491 1.05525 3.61721 2.45108 3.61721 4.69781V6.56523C3.61721 6.88658 3.35522 7.1482 3.03324 7.1482H1.05731V9.56989H3.03324C3.35522 9.56989 3.61721 9.83137 3.61721 10.1529V16.945ZM9.36116 1.05882H9.3613H9.36116Z" fill="white"/>
</svg>
