<svg width="12" height="10" viewBox="0 0 12 10" fill="none" xmlns="http://www.w3.org/2000/svg">
<path d="M11.5 0.500023C11.0212 0.837762 10.4911 1.09608 9.93 1.26502C9.62887 0.918778 9.22867 0.673369 8.78352 0.561986C8.33837 0.450603 7.86975 0.478621 7.44104 0.64225C7.01233 0.805879 6.64422 1.09722 6.38649 1.47688C6.12876 1.85654 5.99385 2.30619 6 2.76502V3.26502C5.12132 3.28781 4.25064 3.09293 3.4655 2.69775C2.68037 2.30256 2.00516 1.71934 1.5 1.00002C1.5 1.00002 -0.5 5.50002 4 7.50002C2.97026 8.19901 1.74358 8.54949 0.5 8.50002C5 11 10.5 8.50002 10.5 2.75002C10.4995 2.61075 10.4861 2.47182 10.46 2.33502C10.9703 1.83177 11.3304 1.19638 11.5 0.500023V0.500023Z" stroke="white" stroke-width="0.5" stroke-linecap="round" stroke-linejoin="round"/>
</svg>
