<svg width="18" height="15" viewBox="0 0 18 15" fill="none" xmlns="http://www.w3.org/2000/svg">
<path d="M18.0002 1.96752C16.8679 2.01971 16.8926 2.01545 16.7646 2.02616L17.4352 0.111088C17.4352 0.111088 15.342 0.8811 14.8114 1.01884C13.4178 -0.23375 11.3463 -0.289094 9.86528 0.621134C8.65252 1.3667 8.00157 2.64704 8.21869 4.14353C5.85839 3.81599 3.8697 2.69716 2.2996 0.811062L1.80301 0.214635L1.43195 0.89607C0.962962 1.75713 0.80723 2.74166 0.993313 3.66823C1.06967 4.04836 1.19945 4.41091 1.37921 4.75039L0.953212 4.58532L0.902674 5.2971C0.85145 6.02015 1.09219 6.86418 1.54676 7.55468C1.67475 7.74914 1.83954 7.96269 2.04842 8.17336L1.82828 8.13957L2.0969 8.95518C2.44998 10.0268 3.18332 10.8558 4.13503 11.3167C3.18456 11.7201 2.41674 11.9774 1.15468 12.3926L0 12.7721L1.06651 13.3553C1.47315 13.5776 2.91004 14.3201 4.32976 14.5429C7.48562 15.0378 11.0388 14.6348 13.4308 12.4805C15.4456 10.6659 16.1067 8.08478 15.9694 5.39873C15.9486 4.99209 16.06 4.604 16.283 4.30613C16.7298 3.7097 17.9975 1.97151 18.0002 1.96752ZM15.4397 3.67441C15.0693 4.16893 14.8838 4.80052 14.917 5.45256C15.0556 8.16196 14.3184 10.2631 12.7257 11.6974C10.8653 13.373 7.86451 14.0306 4.49305 13.5018C3.88247 13.4061 3.25144 13.1917 2.72917 12.9776C3.7873 12.6135 4.60442 12.289 5.92403 11.6644L7.76619 10.7925L5.73232 10.6623C4.75809 10.6 3.94688 10.1278 3.44824 9.36127C3.71301 9.34589 3.96831 9.30304 4.22251 9.23218L6.1623 8.69192L4.2063 8.21291C3.25583 7.98013 2.71407 7.41145 2.42691 6.97529C2.23835 6.68868 2.11517 6.39506 2.04128 6.12438C2.23739 6.17698 2.46605 6.21447 2.83478 6.251L4.64521 6.43008L3.21079 5.31111C2.17724 4.50498 1.76305 3.29386 2.06669 2.12957C5.29231 5.47522 9.07962 5.22377 9.46084 5.31221C9.37694 4.49715 9.37474 4.49523 9.35277 4.41764C8.86456 2.69181 9.9345 1.8155 10.4171 1.51886C11.4251 0.899365 13.0251 0.805981 14.1334 1.82662C14.3728 2.0469 14.6964 2.13356 14.9994 2.0583C15.2713 1.99073 15.4945 1.91918 15.713 1.84132L15.2581 3.14019L15.8388 3.1406C15.7292 3.28755 15.5977 3.46347 15.4397 3.67441Z" fill="white"/>
</svg>
